<svg width="30" height="30" viewBox="0 0 30 30" fill="none" xmlns="http://www.w3.org/2000/svg">
<path fill-rule="evenodd" clip-rule="evenodd" d="M15 18.75C12.9321 18.75 11.25 17.0679 11.25 15C11.25 12.9322 12.9321 11.25 15 11.25C17.0679 11.25 18.75 12.9322 18.75 15C18.75 17.0679 17.0679 18.75 15 18.75ZM15 17.5C13.6224 17.5 12.5 16.3776 12.5 15C12.5 13.6225 13.6225 12.5 15 12.5C16.3775 12.5 17.5 13.6225 17.5 15C17.5 16.3776 16.3775 17.5 15 17.5Z" fill="#1FA2DE"/>
<path fill-rule="evenodd" clip-rule="evenodd" d="M13.8194 3.75C12.8451 3.75 12.051 4.52177 12.0152 5.48734L11.6512 7.30708L10.4207 6.19756C9.71458 5.50501 8.58078 5.50919 7.87988 6.2101L6.21032 7.87966C5.50942 8.58056 5.50523 9.71434 6.19775 10.4204L7.30722 11.6512L5.48734 12.0152C4.52177 12.051 3.75 12.8451 3.75 13.8194V16.1806C3.75 17.1549 4.52177 17.949 5.48734 17.9848L7.30709 18.3488L6.19769 19.5792C5.50513 20.2853 5.50931 21.4191 6.21022 22.12L7.87978 23.7896C8.58068 24.4905 9.71447 24.4946 10.4205 23.8021L11.6512 22.6928L12.0152 24.5127C12.051 25.4782 12.8451 26.25 13.8194 26.25H16.1806C17.1549 26.25 17.949 25.4782 17.9848 24.5126L18.3488 22.6928L19.5795 23.8021C20.2855 24.4946 21.4193 24.4905 22.1202 23.7896L23.7898 22.12C24.4907 21.4191 24.4949 20.2853 23.8023 19.5792L22.6929 18.3488L24.5126 17.9848C25.4782 17.949 26.25 17.1549 26.25 16.1806V13.8194C26.25 12.8451 25.4782 12.051 24.5127 12.0152L22.6928 11.6512L23.8023 10.4204C24.4948 9.71433 24.4906 8.58055 23.7897 7.87965L22.1201 6.2101C21.4192 5.50919 20.2854 5.50501 19.5793 6.19756L18.3488 7.30708L17.9848 5.48735C17.949 4.52177 17.1549 3.75 16.1806 3.75H13.8194ZM13.2639 5.55556C13.2639 5.24873 13.5126 5 13.8194 5H16.1806C16.4874 5 16.7361 5.24873 16.7361 5.55556V5.61744L17.1231 7.55223C17.3132 8.50274 18.4659 8.88455 19.1858 8.23544L20.4391 7.1054L20.4506 7.09398C20.6675 6.87702 21.0193 6.87702 21.2362 7.09398L22.9058 8.76354C23.1228 8.9805 23.1228 9.33226 22.9058 9.54921L22.8944 9.56066L21.7643 10.8142C21.1153 11.5342 21.4972 12.6868 22.4476 12.8769L24.3826 13.2639H24.4444C24.7513 13.2639 25 13.5126 25 13.8194V16.1806C25 16.4874 24.7513 16.7361 24.4444 16.7361H24.3826L22.4478 17.1231C21.4973 17.3132 21.1154 18.4659 21.7646 19.1858L22.8945 20.439L22.9059 20.4504C23.1229 20.6674 23.1229 21.0192 22.9059 21.2361L21.2363 22.9057C21.0194 23.1226 20.6676 23.1226 20.4507 22.9057L20.4392 22.8942L19.1858 21.7643C18.4658 21.1153 17.3132 21.4972 17.1231 22.4476L16.7361 24.3826V24.4444C16.7361 24.7513 16.4874 25 16.1806 25H13.8194C13.5126 25 13.2639 24.7513 13.2639 24.4444V24.3826L12.8769 22.4476C12.6868 21.4972 11.5342 21.1153 10.8142 21.7643L9.56078 22.8942L9.54934 22.9057C9.33238 23.1226 8.98062 23.1226 8.76366 22.9057L7.09411 21.2361C6.87715 21.0192 6.87715 20.6674 7.09411 20.4504L7.10553 20.439L8.23545 19.1858C8.88455 18.4659 8.50274 17.3132 7.55223 17.1231L5.61744 16.7361H5.55556C5.24873 16.7361 5 16.4874 5 16.1806V13.8194C5 13.5126 5.24873 13.2639 5.55556 13.2639H5.61744L7.55237 12.8769C8.50282 12.6868 8.88466 11.5342 8.23567 10.8142L7.10565 9.56066L7.0942 9.54921C6.87724 9.33226 6.87724 8.9805 7.0942 8.76354L8.76376 7.09398C8.98072 6.87702 9.33247 6.87702 9.54943 7.09398L9.56085 7.1054L10.8142 8.23544C11.5341 8.88455 12.6868 8.50274 12.8769 7.55223L13.2639 5.61744V5.55556Z" fill="#1FA2DE"/>
</svg>
